<svg width="370" height="58" viewBox="0 0 370 58" fill="none" xmlns="http://www.w3.org/2000/svg">
<rect x="1" y="1" width="368" height="56" stroke="white" stroke-width="2"/>
<path d="M153.122 29.4521C153.122 31.5732 152.533 33.1963 151.355 34.3213C150.178 35.4404 148.481 36 146.267 36H142.672V23.1504H146.645C148.689 23.1504 150.28 23.7012 151.417 24.8027C152.554 25.9043 153.122 27.4541 153.122 29.4521ZM150.907 29.5225C150.907 26.4463 149.469 24.9082 146.592 24.9082H144.772V34.2334H146.267C149.36 34.2334 150.907 32.6631 150.907 29.5225ZM164.293 31.1221C164.293 32.71 163.886 33.9492 163.071 34.8398C162.257 35.7305 161.123 36.1758 159.67 36.1758C158.762 36.1758 157.959 35.9707 157.262 35.5605C156.564 35.1504 156.028 34.5615 155.653 33.7939C155.278 33.0264 155.091 32.1357 155.091 31.1221C155.091 29.5459 155.495 28.3154 156.304 27.4307C157.112 26.5459 158.252 26.1035 159.723 26.1035C161.129 26.1035 162.242 26.5576 163.062 27.4658C163.883 28.3682 164.293 29.5869 164.293 31.1221ZM157.218 31.1221C157.218 33.3662 158.047 34.4883 159.705 34.4883C161.346 34.4883 162.166 33.3662 162.166 31.1221C162.166 28.9014 161.34 27.791 159.688 27.791C158.82 27.791 158.19 28.0781 157.798 28.6523C157.411 29.2266 157.218 30.0498 157.218 31.1221ZM174.646 36L173.39 31.4648C173.237 30.9844 172.962 29.8682 172.563 28.1162H172.484C172.145 29.6982 171.875 30.8203 171.676 31.4824L170.384 36H168.099L165.374 26.2793H167.483L168.723 31.0693C169.004 32.2529 169.203 33.2666 169.32 34.1104H169.373C169.432 33.6826 169.52 33.1934 169.637 32.6426C169.76 32.0859 169.865 31.6699 169.953 31.3945L171.43 26.2793H173.697L175.13 31.3945C175.218 31.6816 175.326 32.1211 175.455 32.7129C175.59 33.3047 175.669 33.7646 175.692 34.0928H175.763C175.851 33.3721 176.056 32.3643 176.378 31.0693L177.635 26.2793H179.709L176.967 36H174.646ZM189.939 36H187.865V30.0234C187.865 29.2734 187.713 28.7139 187.408 28.3447C187.109 27.9756 186.632 27.791 185.976 27.791C185.103 27.791 184.464 28.0488 184.06 28.5645C183.655 29.0801 183.453 29.9443 183.453 31.1572V36H181.388V26.2793H183.005L183.295 27.5537H183.4C183.693 27.0908 184.109 26.7334 184.648 26.4814C185.188 26.2295 185.785 26.1035 186.441 26.1035C188.773 26.1035 189.939 27.29 189.939 29.6631V36ZM194.879 36H192.813V22.3242H194.879V36ZM206.463 31.1221C206.463 32.71 206.056 33.9492 205.241 34.8398C204.427 35.7305 203.293 36.1758 201.84 36.1758C200.932 36.1758 200.129 35.9707 199.432 35.5605C198.734 35.1504 198.198 34.5615 197.823 33.7939C197.448 33.0264 197.261 32.1357 197.261 31.1221C197.261 29.5459 197.665 28.3154 198.474 27.4307C199.282 26.5459 200.422 26.1035 201.893 26.1035C203.299 26.1035 204.412 26.5576 205.232 27.4658C206.053 28.3682 206.463 29.5869 206.463 31.1221ZM199.388 31.1221C199.388 33.3662 200.217 34.4883 201.875 34.4883C203.516 34.4883 204.336 33.3662 204.336 31.1221C204.336 28.9014 203.51 27.791 201.857 27.791C200.99 27.791 200.36 28.0781 199.968 28.6523C199.581 29.2266 199.388 30.0498 199.388 31.1221ZM214.927 36L214.514 34.6465H214.443C213.975 35.2383 213.503 35.6426 213.028 35.8594C212.554 36.0703 211.944 36.1758 211.2 36.1758C210.245 36.1758 209.498 35.918 208.959 35.4023C208.426 34.8867 208.159 34.1572 208.159 33.2139C208.159 32.2119 208.531 31.4561 209.275 30.9463C210.02 30.4365 211.153 30.1582 212.677 30.1113L214.355 30.0586V29.54C214.355 28.9189 214.209 28.4561 213.916 28.1514C213.629 27.8408 213.181 27.6855 212.571 27.6855C212.073 27.6855 211.596 27.7588 211.139 27.9053C210.682 28.0518 210.242 28.2246 209.82 28.4238L209.152 26.9473C209.68 26.6719 210.257 26.4639 210.884 26.3232C211.511 26.1768 212.103 26.1035 212.659 26.1035C213.896 26.1035 214.827 26.373 215.454 26.9121C216.087 27.4512 216.403 28.2979 216.403 29.4521V36H214.927ZM211.851 34.5938C212.601 34.5938 213.201 34.3857 213.652 33.9697C214.109 33.5479 214.338 32.959 214.338 32.2031V31.3594L213.09 31.4121C212.117 31.4473 211.408 31.6113 210.963 31.9043C210.523 32.1914 210.304 32.6338 210.304 33.2314C210.304 33.665 210.433 34.002 210.69 34.2422C210.948 34.4766 211.335 34.5938 211.851 34.5938ZM222.564 36.1758C221.352 36.1758 220.405 35.7363 219.726 34.8574C219.046 33.9785 218.706 32.7451 218.706 31.1572C218.706 29.5635 219.049 28.3242 219.734 27.4395C220.426 26.5488 221.381 26.1035 222.6 26.1035C223.877 26.1035 224.85 26.5752 225.518 27.5186H225.623C225.523 26.8213 225.474 26.2705 225.474 25.8662V22.3242H227.548V36H225.931L225.57 34.7256H225.474C224.812 35.6924 223.842 36.1758 222.564 36.1758ZM223.118 34.5059C223.968 34.5059 224.586 34.2686 224.973 33.7939C225.359 33.3135 225.559 32.5371 225.57 31.4648V31.1748C225.57 29.9502 225.371 29.0801 224.973 28.5645C224.574 28.0488 223.95 27.791 223.101 27.791C222.374 27.791 221.814 28.0869 221.422 28.6787C221.029 29.2646 220.833 30.1025 220.833 31.1924C220.833 32.2705 221.023 33.0938 221.404 33.6621C221.785 34.2246 222.356 34.5059 223.118 34.5059Z" fill="white"/>
</svg>
