<svg width="270" height="58" viewBox="0 0 270 58" fill="none" xmlns="http://www.w3.org/2000/svg">
<rect width="270" height="58" fill="#EC7979"/>
<path d="M103.122 29.4521C103.122 31.5732 102.533 33.1963 101.355 34.3213C100.178 35.4404 98.4814 36 96.2666 36H92.6719V23.1504H96.6445C98.6895 23.1504 100.28 23.7012 101.417 24.8027C102.554 25.9043 103.122 27.4541 103.122 29.4521ZM100.907 29.5225C100.907 26.4463 99.4688 24.9082 96.5918 24.9082H94.7725V34.2334H96.2666C99.3604 34.2334 100.907 32.6631 100.907 29.5225ZM114.293 31.1221C114.293 32.71 113.886 33.9492 113.071 34.8398C112.257 35.7305 111.123 36.1758 109.67 36.1758C108.762 36.1758 107.959 35.9707 107.262 35.5605C106.564 35.1504 106.028 34.5615 105.653 33.7939C105.278 33.0264 105.091 32.1357 105.091 31.1221C105.091 29.5459 105.495 28.3154 106.304 27.4307C107.112 26.5459 108.252 26.1035 109.723 26.1035C111.129 26.1035 112.242 26.5576 113.062 27.4658C113.883 28.3682 114.293 29.5869 114.293 31.1221ZM107.218 31.1221C107.218 33.3662 108.047 34.4883 109.705 34.4883C111.346 34.4883 112.166 33.3662 112.166 31.1221C112.166 28.9014 111.34 27.791 109.688 27.791C108.82 27.791 108.19 28.0781 107.798 28.6523C107.411 29.2266 107.218 30.0498 107.218 31.1221ZM124.646 36L123.39 31.4648C123.237 30.9844 122.962 29.8682 122.563 28.1162H122.484C122.145 29.6982 121.875 30.8203 121.676 31.4824L120.384 36H118.099L115.374 26.2793H117.483L118.723 31.0693C119.004 32.2529 119.203 33.2666 119.32 34.1104H119.373C119.432 33.6826 119.52 33.1934 119.637 32.6426C119.76 32.0859 119.865 31.6699 119.953 31.3945L121.43 26.2793H123.697L125.13 31.3945C125.218 31.6816 125.326 32.1211 125.455 32.7129C125.59 33.3047 125.669 33.7646 125.692 34.0928H125.763C125.851 33.3721 126.056 32.3643 126.378 31.0693L127.635 26.2793H129.709L126.967 36H124.646ZM139.939 36H137.865V30.0234C137.865 29.2734 137.713 28.7139 137.408 28.3447C137.109 27.9756 136.632 27.791 135.976 27.791C135.103 27.791 134.464 28.0488 134.06 28.5645C133.655 29.0801 133.453 29.9443 133.453 31.1572V36H131.388V26.2793H133.005L133.295 27.5537H133.4C133.693 27.0908 134.109 26.7334 134.648 26.4814C135.188 26.2295 135.785 26.1035 136.441 26.1035C138.773 26.1035 139.939 27.29 139.939 29.6631V36ZM144.879 36H142.813V22.3242H144.879V36ZM156.463 31.1221C156.463 32.71 156.056 33.9492 155.241 34.8398C154.427 35.7305 153.293 36.1758 151.84 36.1758C150.932 36.1758 150.129 35.9707 149.432 35.5605C148.734 35.1504 148.198 34.5615 147.823 33.7939C147.448 33.0264 147.261 32.1357 147.261 31.1221C147.261 29.5459 147.665 28.3154 148.474 27.4307C149.282 26.5459 150.422 26.1035 151.893 26.1035C153.299 26.1035 154.412 26.5576 155.232 27.4658C156.053 28.3682 156.463 29.5869 156.463 31.1221ZM149.388 31.1221C149.388 33.3662 150.217 34.4883 151.875 34.4883C153.516 34.4883 154.336 33.3662 154.336 31.1221C154.336 28.9014 153.51 27.791 151.857 27.791C150.99 27.791 150.36 28.0781 149.968 28.6523C149.581 29.2266 149.388 30.0498 149.388 31.1221ZM164.927 36L164.514 34.6465H164.443C163.975 35.2383 163.503 35.6426 163.028 35.8594C162.554 36.0703 161.944 36.1758 161.2 36.1758C160.245 36.1758 159.498 35.918 158.959 35.4023C158.426 34.8867 158.159 34.1572 158.159 33.2139C158.159 32.2119 158.531 31.4561 159.275 30.9463C160.02 30.4365 161.153 30.1582 162.677 30.1113L164.355 30.0586V29.54C164.355 28.9189 164.209 28.4561 163.916 28.1514C163.629 27.8408 163.181 27.6855 162.571 27.6855C162.073 27.6855 161.596 27.7588 161.139 27.9053C160.682 28.0518 160.242 28.2246 159.82 28.4238L159.152 26.9473C159.68 26.6719 160.257 26.4639 160.884 26.3232C161.511 26.1768 162.103 26.1035 162.659 26.1035C163.896 26.1035 164.827 26.373 165.454 26.9121C166.087 27.4512 166.403 28.2979 166.403 29.4521V36H164.927ZM161.851 34.5938C162.601 34.5938 163.201 34.3857 163.652 33.9697C164.109 33.5479 164.338 32.959 164.338 32.2031V31.3594L163.09 31.4121C162.117 31.4473 161.408 31.6113 160.963 31.9043C160.523 32.1914 160.304 32.6338 160.304 33.2314C160.304 33.665 160.433 34.002 160.69 34.2422C160.948 34.4766 161.335 34.5938 161.851 34.5938ZM172.564 36.1758C171.352 36.1758 170.405 35.7363 169.726 34.8574C169.046 33.9785 168.706 32.7451 168.706 31.1572C168.706 29.5635 169.049 28.3242 169.734 27.4395C170.426 26.5488 171.381 26.1035 172.6 26.1035C173.877 26.1035 174.85 26.5752 175.518 27.5186H175.623C175.523 26.8213 175.474 26.2705 175.474 25.8662V22.3242H177.548V36H175.931L175.57 34.7256H175.474C174.812 35.6924 173.842 36.1758 172.564 36.1758ZM173.118 34.5059C173.968 34.5059 174.586 34.2686 174.973 33.7939C175.359 33.3135 175.559 32.5371 175.57 31.4648V31.1748C175.57 29.9502 175.371 29.0801 174.973 28.5645C174.574 28.0488 173.95 27.791 173.101 27.791C172.374 27.791 171.814 28.0869 171.422 28.6787C171.029 29.2646 170.833 30.1025 170.833 31.1924C170.833 32.2705 171.023 33.0938 171.404 33.6621C171.785 34.2246 172.356 34.5059 173.118 34.5059Z" fill="white"/>
</svg>
